<svg xmlns="http://www.w3.org/2000/svg" xmlns:xlink="http://www.w3.org/1999/xlink" width="40" zoomAndPan="magnify" viewBox="0 0 30 30.000001" height="40" preserveAspectRatio="xMidYMid meet" version="1.0"><defs><clipPath id="4e939eb86b"><path d="M 2 11 L 19 11 L 19 29 L 2 29 Z M 2 11 " clip-rule="nonzero"/></clipPath><clipPath id="9a566bc12e"><path d="M 10.617188 9.726562 L 19.617188 17.066406 L 7.230469 32.253906 L -1.769531 24.914062 Z M 10.617188 9.726562 " clip-rule="nonzero"/></clipPath><clipPath id="69a9abb5ba"><path d="M 10.617188 9.726562 L 19.617188 17.066406 L 7.230469 32.253906 L -1.769531 24.914062 Z M 10.617188 9.726562 " clip-rule="nonzero"/></clipPath><clipPath id="2afbc4244d"><path d="M 10.617188 9.726562 L 19.617188 17.066406 L 7.230469 32.253906 L -1.769531 24.914062 Z M 10.617188 9.726562 " clip-rule="nonzero"/></clipPath><clipPath id="7e161e76ac"><path d="M 8 11 L 21 11 L 21 19 L 8 19 Z M 8 11 " clip-rule="nonzero"/></clipPath><clipPath id="6fd9bbf73b"><path d="M 13.855469 0 L 27.746094 7.878906 L 19.867188 21.765625 L 5.980469 13.890625 Z M 13.855469 0 " clip-rule="nonzero"/></clipPath><clipPath id="7be04a568e"><path d="M 13.855469 0 L 27.746094 7.878906 L 19.867188 21.765625 L 5.980469 13.890625 Z M 13.855469 0 " clip-rule="nonzero"/></clipPath><clipPath id="7d4034ef1d"><path d="M 13.855469 0 L 27.746094 7.878906 L 19.867188 21.765625 L 5.980469 13.890625 Z M 13.855469 0 " clip-rule="nonzero"/></clipPath><clipPath id="2feed406fd"><path d="M 8.886719 11.238281 L 20.433594 17.785156 L 18.585938 21.039062 L 7.042969 14.496094 Z M 8.886719 11.238281 " clip-rule="nonzero"/></clipPath><clipPath id="ec335217f7"><path d="M 9 2 L 25 2 L 25 17 L 9 17 Z M 9 2 " clip-rule="nonzero"/></clipPath><clipPath id="11417cc640"><path d="M 13.855469 0 L 27.746094 7.878906 L 19.867188 21.765625 L 5.980469 13.890625 Z M 13.855469 0 " clip-rule="nonzero"/></clipPath><clipPath id="1a16c53eb8"><path d="M 13.855469 0 L 27.746094 7.878906 L 19.867188 21.765625 L 5.980469 13.890625 Z M 13.855469 0 " clip-rule="nonzero"/></clipPath><clipPath id="46129701b7"><path d="M 13.855469 0 L 27.746094 7.878906 L 19.867188 21.765625 L 5.980469 13.890625 Z M 13.855469 0 " clip-rule="nonzero"/></clipPath><clipPath id="07ac47cbee"><path d="M 13.855469 0 L 27.746094 7.878906 L 22.992188 16.261719 L 9.101562 8.386719 Z M 13.855469 0 " clip-rule="nonzero"/></clipPath><clipPath id="e244d32b97"><path d="M 8 8 L 23 8 L 23 18 L 8 18 Z M 8 8 " clip-rule="nonzero"/></clipPath><clipPath id="50710ed3a1"><path d="M 13.855469 0 L 27.746094 7.878906 L 19.867188 21.765625 L 5.980469 13.890625 Z M 13.855469 0 " clip-rule="nonzero"/></clipPath><clipPath id="63b1bfbbb3"><path d="M 13.855469 0 L 27.746094 7.878906 L 19.867188 21.765625 L 5.980469 13.890625 Z M 13.855469 0 " clip-rule="nonzero"/></clipPath><clipPath id="ce712e4c80"><path d="M 13.855469 0 L 27.746094 7.878906 L 19.867188 21.765625 L 5.980469 13.890625 Z M 13.855469 0 " clip-rule="nonzero"/></clipPath></defs><g clip-path="url(#4e939eb86b)"><g clip-path="url(#9a566bc12e)"><g clip-path="url(#69a9abb5ba)"><g clip-path="url(#2afbc4244d)"><path fill="#000000" d="M 2.734375 28.574219 C 2.859375 28.675781 2.988281 28.683594 3.121094 28.597656 L 17.476562 19.382812 C 17.484375 19.378906 17.484375 19.375 17.488281 19.375 C 17.714844 19.296875 17.902344 19.171875 18.050781 18.992188 C 18.941406 17.902344 17.675781 15.5 15.109375 13.40625 C 12.542969 11.3125 9.933594 10.554688 9.046875 11.644531 C 8.898438 11.828125 8.8125 12.039062 8.785156 12.273438 L 2.636719 28.203125 C 2.578125 28.351562 2.613281 28.472656 2.734375 28.574219 Z M 3.613281 27.5 L 4.964844 23.996094 L 8.949219 24.074219 Z M 6.308594 20.515625 L 14.238281 20.679688 L 9.9375 23.441406 L 5.21875 23.347656 Z M 8.992188 13.5625 C 9.433594 14.675781 10.484375 16.003906 11.988281 17.230469 C 13.492188 18.457031 15.007812 19.222656 16.1875 19.429688 L 15.226562 20.046875 L 6.558594 19.867188 Z M 14.699219 13.910156 C 17.050781 15.828125 18.085938 17.910156 17.542969 18.574219 C 17 19.242188 14.753906 18.644531 12.402344 16.726562 C 10.050781 14.808594 9.011719 12.726562 9.558594 12.0625 C 10.101562 11.394531 12.34375 11.992188 14.699219 13.910156 Z M 14.699219 13.910156 " fill-opacity="1" fill-rule="nonzero"/></g></g></g></g><g clip-path="url(#7e161e76ac)"><g clip-path="url(#6fd9bbf73b)"><g clip-path="url(#7be04a568e)"><g clip-path="url(#7d4034ef1d)"><g clip-path="url(#2feed406fd)"><path fill="#3871c1" d="M 10.585938 12.511719 C 11.324219 13.25 12.007812 14.042969 12.902344 14.605469 C 13.804688 15.175781 14.84375 15.492188 15.855469 15.808594 C 16.460938 15.996094 17.070312 16.1875 17.652344 16.445312 C 18.257812 16.71875 18.792969 17.089844 19.320312 17.488281 C 19.609375 17.703125 19.910156 17.925781 20.230469 18.121094 C 17.972656 19.171875 15.257812 19.152344 12.925781 17.828125 C 10.453125 16.429688 9.015625 13.910156 8.886719 11.273438 C 9.515625 11.546875 10.085938 12.015625 10.585938 12.511719 " fill-opacity="1" fill-rule="nonzero"/></g></g></g></g></g><g clip-path="url(#ec335217f7)"><g clip-path="url(#11417cc640)"><g clip-path="url(#1a16c53eb8)"><g clip-path="url(#46129701b7)"><g clip-path="url(#07ac47cbee)"><path fill="#f68712" d="M 17.152344 11.371094 C 17.152344 11.375 17.148438 11.382812 17.144531 11.390625 C 17.121094 11.441406 17.144531 11.507812 17.199219 11.53125 L 18.414062 12.027344 L 20.042969 13.246094 L 18.160156 12.472656 L 17.109375 11.6875 C 17.0625 11.652344 16.996094 11.664062 16.960938 11.710938 C 16.929688 11.761719 16.894531 11.804688 16.859375 11.851562 C 16.832031 11.890625 16.832031 11.945312 16.863281 11.980469 L 16.945312 12.082031 C 16.925781 12.074219 16.902344 12.070312 16.882812 12.0625 C 16.761719 12.019531 16.636719 11.976562 16.515625 11.933594 C 16.65625 11.796875 16.785156 11.636719 16.886719 11.457031 C 17.445312 10.46875 17.101562 9.214844 16.113281 8.652344 C 15.125 8.09375 13.867188 8.4375 13.308594 9.425781 C 13.203125 9.617188 13.128906 9.8125 13.085938 10.015625 C 13.035156 9.972656 12.988281 9.929688 12.9375 9.890625 C 12.925781 9.878906 12.914062 9.867188 12.898438 9.855469 C 12.902344 9.847656 12.902344 9.84375 12.902344 9.835938 C 12.90625 9.832031 12.90625 9.828125 12.90625 9.828125 C 12.90625 9.792969 12.890625 9.757812 12.859375 9.738281 L 12.597656 9.597656 C 12.546875 9.554688 12.496094 9.511719 12.445312 9.46875 L 12.902344 9.582031 C 12.945312 9.59375 12.988281 9.570312 13.007812 9.53125 C 13.011719 9.515625 13.019531 9.503906 13.027344 9.488281 C 13.046875 9.441406 13.027344 9.386719 12.980469 9.367188 L 11.78125 8.855469 L 10.152344 7.640625 L 12.035156 8.410156 L 13.066406 9.210938 C 13.109375 9.242188 13.164062 9.234375 13.195312 9.195312 C 13.242188 9.136719 13.300781 9.074219 13.34375 9.023438 C 13.375 8.984375 13.375 8.929688 13.339844 8.890625 L 12.925781 8.386719 L 13.457031 8.773438 C 13.496094 8.800781 13.550781 8.796875 13.585938 8.765625 C 13.597656 8.753906 13.609375 8.746094 13.621094 8.734375 C 13.664062 8.695312 13.667969 8.628906 13.628906 8.585938 L 13.613281 8.566406 L 13.007812 7.40625 L 13.882812 8.378906 L 13.898438 8.40625 C 13.925781 8.457031 13.988281 8.476562 14.039062 8.449219 C 14.082031 8.425781 14.105469 8.375 14.089844 8.328125 L 13.90625 7.703125 L 14.242188 8.261719 C 14.265625 8.304688 14.320312 8.324219 14.363281 8.308594 C 14.375 8.304688 14.386719 8.300781 14.394531 8.296875 C 14.453125 8.277344 14.480469 8.21875 14.460938 8.160156 L 13.976562 6.910156 L 13.738281 4.890625 L 14.472656 6.789062 L 14.628906 8.121094 C 14.636719 8.179688 14.691406 8.222656 14.746094 8.210938 C 14.761719 8.210938 14.777344 8.207031 14.792969 8.207031 C 14.84375 8.199219 14.882812 8.160156 14.882812 8.109375 L 14.929688 7.476562 L 15.042969 8.101562 C 15.054688 8.148438 15.09375 8.183594 15.144531 8.1875 C 15.160156 8.1875 15.175781 8.1875 15.1875 8.1875 C 15.246094 8.1875 15.296875 8.144531 15.296875 8.085938 L 15.296875 8.078125 L 15.660156 6.820312 L 15.621094 8.128906 L 15.621094 8.136719 C 15.605469 8.191406 15.636719 8.25 15.691406 8.265625 C 15.695312 8.265625 15.695312 8.265625 15.695312 8.265625 C 15.742188 8.277344 15.792969 8.257812 15.816406 8.210938 L 16.105469 7.644531 L 15.964844 8.265625 C 15.957031 8.316406 15.980469 8.363281 16.027344 8.386719 C 16.03125 8.386719 16.039062 8.390625 16.042969 8.394531 C 16.097656 8.417969 16.164062 8.394531 16.1875 8.339844 L 16.683594 7.125 L 17.902344 5.496094 L 17.128906 7.378906 L 16.34375 8.429688 C 16.308594 8.476562 16.320312 8.542969 16.367188 8.578125 C 16.414062 8.609375 16.457031 8.640625 16.496094 8.671875 C 16.535156 8.703125 16.589844 8.703125 16.628906 8.671875 L 17.128906 8.257812 L 16.75 8.78125 C 16.71875 8.820312 16.722656 8.875 16.757812 8.914062 C 16.765625 8.921875 16.777344 8.933594 16.785156 8.941406 C 16.824219 8.984375 16.890625 8.988281 16.933594 8.949219 L 16.945312 8.9375 L 18.109375 8.332031 L 17.132812 9.207031 L 17.121094 9.214844 C 17.070312 9.242188 17.046875 9.304688 17.078125 9.359375 C 17.078125 9.359375 17.078125 9.359375 17.078125 9.363281 C 17.101562 9.40625 17.152344 9.425781 17.199219 9.414062 L 17.820312 9.230469 L 17.269531 9.5625 C 17.226562 9.585938 17.207031 9.640625 17.222656 9.6875 C 17.226562 9.6875 17.226562 9.691406 17.226562 9.695312 C 17.246094 9.75 17.308594 9.777344 17.363281 9.757812 L 18.605469 9.277344 L 20.621094 9.039062 L 18.726562 9.773438 L 17.410156 9.925781 C 17.351562 9.933594 17.308594 9.992188 17.320312 10.050781 C 17.324219 10.078125 17.328125 10.109375 17.332031 10.136719 C 17.339844 10.1875 17.378906 10.226562 17.429688 10.230469 L 18.066406 10.273438 L 17.441406 10.386719 C 17.390625 10.398438 17.355469 10.441406 17.355469 10.488281 C 17.355469 10.503906 17.351562 10.519531 17.351562 10.53125 C 17.351562 10.589844 17.394531 10.640625 17.453125 10.640625 L 17.460938 10.640625 L 18.722656 11.003906 L 17.410156 10.964844 L 17.402344 10.964844 C 17.347656 10.949219 17.289062 10.980469 17.273438 11.039062 C 17.261719 11.085938 17.28125 11.136719 17.328125 11.160156 L 17.894531 11.449219 L 17.273438 11.3125 C 17.222656 11.300781 17.175781 11.324219 17.152344 11.371094 Z M 22.882812 16.128906 C 23.226562 15.734375 23.539062 15.296875 23.808594 14.820312 C 25.980469 10.988281 24.636719 6.113281 20.800781 3.9375 C 16.964844 1.765625 12.089844 3.109375 9.917969 6.945312 C 9.660156 7.398438 9.453125 7.863281 9.292969 8.339844 C 9.898438 8.320312 10.515625 8.496094 11.058594 8.777344 C 12.246094 9.398438 13.097656 10.472656 14.230469 11.164062 C 16.101562 12.304688 18.429688 12.457031 20.128906 13.914062 C 21.019531 14.675781 21.761719 15.746094 22.882812 16.128906 " fill-opacity="1" fill-rule="nonzero"/></g></g></g></g></g><g clip-path="url(#e244d32b97)"><g clip-path="url(#50710ed3a1)"><g clip-path="url(#63b1bfbbb3)"><g clip-path="url(#ce712e4c80)"><path fill="#3871c1" d="M 11.5625 10.140625 C 12.304688 10.882812 12.984375 11.675781 13.878906 12.238281 C 14.78125 12.804688 15.820312 13.121094 16.832031 13.4375 C 17.4375 13.625 18.046875 13.816406 18.628906 14.078125 C 19.238281 14.347656 19.769531 14.71875 20.300781 15.117188 C 21.003906 15.652344 21.820312 16.230469 22.710938 16.324219 C 22.140625 16.933594 21.492188 17.441406 20.785156 17.839844 C 20.210938 17.363281 19.710938 16.761719 19.152344 16.285156 C 17.453125 14.828125 15.121094 14.675781 13.253906 13.535156 C 12.121094 12.839844 11.269531 11.769531 10.082031 11.148438 C 9.707031 10.953125 9.292969 10.808594 8.878906 10.742188 C 8.890625 10.058594 8.988281 9.367188 9.183594 8.695312 C 10.089844 8.851562 10.890625 9.472656 11.5625 10.140625 " fill-opacity="1" fill-rule="nonzero"/></g></g></g></g></svg>